<svg xmlns="http://www.w3.org/2000/svg" viewBox="0 0 100 100" fill="none">
  <!-- Background Circle -->
  <circle cx="50" cy="50" r="45" fill="#3B82F6"/>
  
  <!-- Grid Layout: 2x2 -->
  <!-- Top Left: List Icon -->
  <g transform="translate(18, 18)">
    <rect x="0" y="0" width="28" height="28" rx="4" fill="white" opacity="0.9"/>
    <rect x="4" y="6" width="4" height="4" rx="1" fill="#3B82F6"/>
    <rect x="10" y="7" width="14" height="2" rx="1" fill="#3B82F6"/>
    <rect x="4" y="12" width="4" height="4" rx="1" fill="#3B82F6"/>
    <rect x="10" y="13" width="14" height="2" rx="1" fill="#3B82F6"/>
    <rect x="4" y="18" width="4" height="4" rx="1" fill="#3B82F6"/>
    <rect x="10" y="19" width="14" height="2" rx="1" fill="#3B82F6"/>
  </g>
  
  <!-- Top Right: Check List -->
  <g transform="translate(54, 18)">
    <rect x="0" y="0" width="28" height="28" rx="4" fill="white" opacity="0.9"/>
    <path d="M4 8 L8 12 L14 6" stroke="#22C55E" stroke-width="2" stroke-linecap="round" stroke-linejoin="round" fill="none"/>
    <rect x="4" y="16" width="4" height="4" rx="1" fill="#3B82F6"/>
    <rect x="10" y="17" width="14" height="2" rx="1" fill="#3B82F6"/>
  </g>
  
  <!-- Bottom Left: Calendar/Task -->
  <g transform="translate(18, 54)">
    <rect x="0" y="0" width="28" height="28" rx="4" fill="white" opacity="0.9"/>
    <rect x="4" y="4" width="20" height="4" rx="1" fill="#3B82F6"/>
    <rect x="4" y="10" width="4" height="4" rx="1" fill="#3B82F6"/>
    <rect x="10" y="11" width="14" height="2" rx="1" fill="#3B82F6"/>
    <rect x="4" y="16" width="4" height="4" rx="1" fill="#3B82F6"/>
    <rect x="10" y="17" width="10" height="2" rx="1" fill="#3B82F6"/>
  </g>
  
  <!-- Bottom Right: Connection/Share -->
  <g transform="translate(54, 54)">
    <rect x="0" y="0" width="28" height="28" rx="4" fill="white" opacity="0.9"/>
    <circle cx="8" cy="8" r="3" fill="#3B82F6"/>
    <circle cx="20" cy="8" r="3" fill="#3B82F6"/>
    <circle cx="8" cy="20" r="3" fill="#3B82F6"/>
    <circle cx="20" cy="20" r="3" fill="#3B82F6"/>
    <line x1="8" y1="8" x2="20" y2="20" stroke="#3B82F6" stroke-width="1.5"/>
    <line x1="20" y1="8" x2="8" y2="20" stroke="#3B82F6" stroke-width="1.5"/>
  </g>
</svg>
